<svg width="500" height="438" xmlns="http://www.w3.org/2000/svg">
 <defs>
  <linearGradient y2="1" x2="1" y1="0" x1="0" id="imagebot_live_def_fill">
   <stop offset="0" stop-color="#FFFF00"/>
   <stop offset="1" stop-color="#ff0000"/>
  </linearGradient>
 </defs>
 <metadata id="imagebot_7">image/svg+xml</metadata>
 <g id="imagebot_2">
  <path stroke-width="6" transform="rotate(359.906, 249.998, 333.249) matrix(1.34309, 0, 0, -1.34309, -93.8327, 518.847)" fill="url(#imagebot_live_def_fill)" fill-rule="evenodd" stroke="#ff7f00" id="imagebot_6" d="M256,60C242.3901,60 229.10949,61.39058 216.28125,64.03125L205.09375,94.1875L168.53125,192.625L209.65625,216.375C220.84422,203.30103 237.44331,195 256,195C274.55668,195 291.15577,203.30103 302.34375,216.375L343.46875,192.625L306.90625,94.1875L295.71875,64.03125C282.8905,61.39058 269.60989,60 256,60z"/>
  <path stroke-width="18.5" fill="url(#imagebot_live_def_fill)" fill-rule="evenodd" stroke="#ff7f00" id="imagebot_5" transform="rotate(359.906, 249.999, 175.016) matrix(0.304794, 0.000502127, 0.000499219, -0.303029, 187.774, 236.302)" d="M384.49069,202.58322A180.66852,181.72096 0 1 1 23.15366,202.58322A180.66852,181.72096 0 1 1 384.49069,202.58322z"/>
  <path stroke-width="6" transform="rotate(359.906, 382.5, 117.148) matrix(1.34309, 0.00221265, 0.00221265, -1.34309, -94.4938, 518.062)" fill="url(#imagebot_live_def_fill)" fill-rule="evenodd" stroke="#ff7f00" id="imagebot_4" d="M425.77,353.925 C432.575,342.139 438.011,329.942 442.138,317.512 L421.616,292.746 L354.647,211.863 L313.517,235.603 C319.245,251.829 318.135,270.355 308.856,286.425 C299.578,302.496 284.089,312.721 267.173,315.873 L267.179,363.363 L370.71,380.918 L402.419,386.307 C411.12,376.518 418.965,365.712 425.77,353.925 L425.77,353.925 z"/>
  <path stroke-width="6" transform="rotate(359.906, 117.497, 117.148) matrix(1.34309, 0.00221265, 0.00221265, -1.34309, -94.4942, 518.499)" fill="url(#imagebot_live_def_fill)" fill-rule="evenodd" stroke="#ff7f00" id="imagebot_3" d="M86.2302,353.925 C93.0351,365.712 100.88,376.518 109.581,386.307 L141.291,380.918 L244.821,363.363 L244.827,315.873 C227.911,312.721 212.422,302.496 203.144,286.425 C193.866,270.355 192.755,251.829 198.483,235.603 L157.353,211.863 L90.3845,292.746 L69.8622,317.513 C73.9894,329.942 79.4254,342.139 86.2304,353.926 L86.2302,353.925 z"/>
  <title>imagebot_2</title>
  <circle stroke-width="11.5" transform="rotate(359.906, 134.5, 127.5) matrix(0.999999, 0.00164743, -0.00164743, 0.999999, 0.21023, -0.221406)" r="0.5" cy="127.5" cx="134.5" id="imagebot_15" fill="url(#imagebot_live_def_fill)"/>
 </g>
</svg>